#!OML:ASF X:\für Bonn\!DataBase\2005_08_11_Bastian_Final\c3d\Bastian.ASF
:FULLY-SPECIFIED
:DEGREES
501
root -2.3964 1.19901 21.5105 -1003.68 -1.85152 -178.748
lowerback 12.8199 -0.6096 0.321224
upperback 11.5433 -2.19697 1.14861
thorax 5.06038 -1.85275 1.13963
lowerneck -4.89457 -4.07563 -8.07568
upperneck 8.47965 -5.51034 6.09277
head 3.71708 -2.78714 2.89357
rclavicle -6.75868e-015 9.74045e-015
rhumerus -62.5136 59.034 -109.169
rradius 28.5142
rwrist -9.56189
rhand -16.4058 -0.264612
rfingers 7.12502
rthumb 9.80862 -30.0162
lclavicle -6.75868e-015 9.74045e-015
lhumerus -50.6634 -55.8332 110.175
lradius 21.4348
lwrist 37.179
lhand -17.4686 -1.05295
lfingers 7.12502
lthumb 8.78313 28.7443
rfemur 5.4389 6.68685 24.9365
rtibia 31.0218
rfoot -19.4133 -31.4025
rtoes 0.0297473
lfemur 5.40807 -5.19668 -18.8314
ltibia 24.3897
lfoot 12.4113 -5.12369
ltoes -9.7115
502
root -2.39546 1.1988 21.5101 -1003.67 -1.8495 -178.737
lowerback 12.8495 -0.618842 0.321313
upperback 11.436 -2.18796 1.13365
thorax 4.9255 -1.8362 1.12836
lowerneck -5.19631 -4.09731 -8.00868
upperneck 8.46145 -5.51178 6.06821
head 3.75937 -2.77842 2.86937
rclavicle 5.56597e-015 -1.23246e-014
rhumerus -62.6934 58.9765 -109.424
rradius 28.3492
rwrist -9.72111
rhand -16.4754 -0.499941
rfingers 7.12502
rthumb 9.74152 -30.2546
lclavicle 5.56597e-015 -1.23246e-014
lhumerus -49.713 -55.3881 109.572
lradius 20.5306
lwrist 37.1022
lhand -17.583 -0.717163
lfingers 7.12502
lthumb 8.67274 29.0847
rfemur 5.4269 6.69526 24.9402
rtibia 31.0304
rfoot -19.446 -31.4946
rtoes 0.0448729
lfemur 5.39511 -5.18439 -18.8316
ltibia 24.3788
lfoot 12.4513 -5.23879
ltoes -9.78946
503
root -2.39457 1.19832 21.5092 -1003.65 -1.82962 -178.75
lowerback 12.8515 -0.622302 0.36554
upperback 11.3544 -2.17117 1.10384
thorax 4.83167 -1.8143 1.07421
lowerneck -5.52637 -4.11078 -7.93232
upperneck 8.43099 -5.50536 6.08467
head 3.8029 -2.76342 2.85628
rclavicle -7.95139e-016 -1.59028e-015
rhumerus -62.6808 58.8657 -109.515
rradius 28.1513
rwrist -9.89128
rhand -16.5683 -0.674935
rfingers 7.12502
rthumb 9.65189 -30.4338
lclavicle -7.95139e-016 -1.59028e-015
lhumerus -48.7728 -54.9892 108.908
lradius 19.7209
lwrist 36.916
lhand -17.6851 -0.461816
lfingers 7.12502
lthumb 8.57425 29.3441
rfemur 5.41553 6.77819 24.9886
rtibia 31.0335
rfoot -19.5324 -31.6431
rtoes 0.00755603
lfemur 5.37694 -5.17258 -18.8122
ltibia 24.3722
lfoot 12.4769 -5.34892
ltoes -10.0881
504
root -2.39291 1.19772 21.5089 -1003.63 -1.85128 -178.734
lowerback 12.849 -0.626727 0.323368
upperback 11.2761 -2.16461 1.10228
thorax 4.74795 -1.80491 1.09848
lowerneck -5.83693 -4.12206 -7.92885
upperneck 8.37247 -5.48878 6.10459
head 3.83614 -2.74498 2.85726
rclavicle 5.96354e-015 3.27995e-015
rhumerus -62.8036 58.8691 -109.687
rradius 27.9971
rwrist -10.0886
rhand -16.6437 -0.96043
rfingers 7.12502
rthumb 9.57912 -30.7227
lclavicle 5.96354e-015 3.27995e-015
lhumerus -48.008 -54.6452 108.471
lradius 19.0199
lwrist 36.8231
lhand -17.8349 -0.241697
lfingers 7.12502
lthumb 8.42963 29.5701
rfemur 5.40285 6.85356 24.9864
rtibia 31.0411
rfoot -19.6612 -31.7893
rtoes 0.029873
lfemur 5.35784 -5.19665 -18.8475
ltibia 24.3631
lfoot 12.4938 -5.39551
ltoes -10.3573
505
root -2.39242 1.19762 21.5087 -1003.61 -1.83305 -178.73
lowerback 12.8516 -0.638644 0.370371
upperback 11.1812 -2.15711 1.08107
thorax 4.64007 -1.78686 1.05299
lowerneck -6.16712 -4.13893 -7.8438
upperneck 8.36367 -5.48672 6.086
head 3.88537 -2.73384 2.83171
rclavicle 2.10712e-014 -3.10104e-014
rhumerus -62.8698 58.7909 -109.819
rradius 27.844
rwrist -10.2828
rhand -16.7464 -1.27723
rfingers 7.12502
rthumb 9.48006 -31.044
lclavicle 2.10712e-014 -3.10104e-014
lhumerus -47.534 -54.4451 108.234
lradius 18.4752
lwrist 36.7136
lhand -17.9731 -0.00553889
lfingers 7.12502
lthumb 8.29628 29.8116
rfemur 5.39197 6.9556 25.0334
rtibia 31.0454
rfoot -19.8816 -31.924
rtoes 0.295657
lfemur 5.33352 -5.21981 -18.8361
ltibia 24.3508
lfoot 12.5206 -5.44024
ltoes -10.5869
506
root -2.39155 1.19666 21.5083 -1003.59 -1.83237 -178.726
lowerback 12.8564 -0.647316 0.384937
upperback 11.0953 -2.14986 1.06239
thorax 4.54203 -1.77222 1.02802
lowerneck -6.45608 -4.14576 -7.76987
upperneck 8.29465 -5.47074 6.07103
head 3.90893 -2.7161 2.81114
rclavicle -3.18055e-015 3.22031e-014
rhumerus -62.9659 58.7501 -109.989
rradius 27.6741
rwrist -10.5172
rhand -16.8584 -1.59212
rfingers 7.12502
rthumb 9.37197 -31.3638
lclavicle -3.18055e-015 3.22031e-014
lhumerus -47.2908 -54.3287 108.161
lradius 18.1382
lwrist 36.6367
lhand -18.1115 0.131886
lfingers 7.12502
lthumb 8.16269 29.9542
rfemur 5.37626 6.96395 25.0352
rtibia 31.0572
rfoot -19.933 -32.0203
rtoes 0.347503
lfemur 5.31895 -5.1964 -18.8336
ltibia 24.3292
lfoot 12.5346 -5.53349
ltoes -11.0111
507
root -2.39015 1.19613 21.5071 -1003.57 -1.80856 -178.725
lowerback 12.86 -0.664427 0.424546
upperback 11.0154 -2.15363 1.04609
thorax 4.45085 -1.76266 0.992174
lowerneck -6.80415 -4.15463 -7.70692
upperneck 8.26397 -5.45703 6.0778
head 3.95495 -2.69833 2.79761
rclavicle 8.74653e-015 -7.25564e-015
rhumerus -63.0179 58.7176 -110.121
rradius 27.5056
rwrist -10.6878
rhand -16.9991 -1.96595
rfingers 7.12502
rthumb 9.23623 -31.7437
lclavicle 8.74653e-015 -7.25564e-015
lhumerus -47.3904 -54.424 108.413
lradius 17.9644
lwrist 36.7843
lhand -18.287 0.212924
lfingers 7.12502
lthumb 7.99333 30.0418
rfemur 5.37421 7.10058 25.1082
rtibia 31.0624
rfoot -20.1649 -32.1918
rtoes 0.467946
lfemur 5.30443 -5.22979 -18.8085
ltibia 24.3124
lfoot 12.557 -5.50852
ltoes -10.9537
508
root -2.38949 1.19509 21.5066 -1003.54 -1.83286 -178.718
lowerback 12.865 -0.671007 0.416993
upperback 10.9254 -2.14494 1.03107
thorax 4.34925 -1.74856 0.983394
lowerneck -7.13572 -4.17087 -7.64408
upperneck 8.23103 -5.45 6.04229
head 3.99687 -2.68596 2.77104
rclavicle 1.03368e-014 -1.92821e-014
rhumerus -63.1751 58.7329 -110.322
rradius 27.3654
rwrist -11.0166
rhand -17.128 -2.32534
rfingers 7.12502
rthumb 9.11184 -32.1085
lclavicle 1.03368e-014 -1.92821e-014
lhumerus -47.6861 -54.5575 108.778
lradius 18.0148
lwrist 36.8488
lhand -18.4083 0.237817
lfingers 7.12502
lthumb 7.87627 30.0711
rfemur 5.35156 7.13681 25.0805
rtibia 31.0696
rfoot -20.2889 -32.2834
rtoes 0.700042
lfemur 5.28622 -5.25184 -18.8451
ltibia 24.2915
lfoot 12.5501 -5.53728
ltoes -11.199
509
root -2.38809 1.19455 21.5059 -1003.53 -1.80783 -178.715
lowerback 12.8756 -0.678145 0.474766
upperback 10.8519 -2.13458 1.00712
thorax 4.26048 -1.73122 0.928144
lowerneck -7.50485 -4.17817 -7.50093
upperneck 8.21708 -5.43894 5.99626
head 4.04796 -2.66976 2.72778
rclavicle 1.51076e-014 -1.40143e-014
rhumerus -63.2027 58.6868 -110.434
rradius 27.208
rwrist -11.2683
rhand -17.2311 -2.63865
rfingers 7.12502
rthumb 9.01231 -32.4261
lclavicle 1.51076e-014 -1.40143e-014
lhumerus -48.1825 -54.8109 109.251
lradius 18.2058
lwrist 36.904
lhand -18.4706 0.17261
lfingers 7.12502
lthumb 7.81619 30.0081
rfemur 5.34889 7.14799 25.1149
rtibia 31.0764
rfoot -20.3758 -32.3753
rtoes 0.605988
lfemur 5.2842 -5.23798 -18.8044
ltibia 24.2633
lfoot 12.5708 -5.54859
ltoes -11.2441
510
root -2.38669 1.19381 21.5056 -1003.51 -1.8091 -178.713
lowerback 12.8704 -0.683642 0.484185
upperback 10.7721 -2.12538 0.999584
thorax 4.17556 -1.71733 0.916847
lowerneck -7.84432 -4.19897 -7.44781
upperneck 8.17441 -5.44257 5.99846
head 4.09018 -2.66173 2.71366
rclavicle 3.18055e-015 1.18277e-014
rhumerus -63.1586 58.6281 -110.422
rradius 27.0342
rwrist -11.482
rhand -17.3496 -2.86724
rfingers 7.12502
rthumb 8.89795 -32.6596
lclavicle 3.18055e-015 1.18277e-014
lhumerus -48.7206 -54.9898 109.701
lradius 18.575
lwrist 36.8884
lhand -18.506 0.0665738
lfingers 7.12502
lthumb 7.78199 29.9034
rfemur 5.34295 7.29312 25.1608
rtibia 31.0829
rfoot -20.6904 -32.5149
rtoes 1.14909
lfemur 5.26625 -5.27359 -18.8082
ltibia 24.2331
lfoot 12.5782 -5.5448
ltoes -11.3109
